<svg xmlns="http://www.w3.org/2000/svg" version="1.1" xmlns:xlink="http://www.w3.org/1999/xlink" xmlns:svgjs="http://svgjs.dev/svgjs" width="1000" height="526" viewBox="0 0 1000 526"><g transform="matrix(1,0,0,1,-0.11940298507454372,-0.7442340425531029)"><svg viewBox="0 0 268 141" data-background-color="#ffffff" preserveAspectRatio="xMidYMid meet" height="526" width="1000" xmlns="http://www.w3.org/2000/svg" xmlns:xlink="http://www.w3.org/1999/xlink"><g id="tight-bounds" transform="matrix(1,0,0,1,0.031999999999982265,0.19949999999997203)"><svg viewBox="0 0 267.9358945054945 140.60052000000002" height="140.60052000000002" width="267.9358945054945"><g><svg viewBox="0 0 267.9358945054945 140.60052000000002" height="140.60052000000002" width="267.9358945054945"><g><svg viewBox="0 0 267.9358945054945 140.60052000000002" height="140.60052000000002" width="267.9358945054945"><g><path d="M0 140.601v-140.601h267.936v140.601z" fill="#ffffff" stroke="transparent" stroke-width="0" rx="0%" data-fill-palette-color="tertiary"></path><path d="M3.283 137.317v-134.034h261.37v134.034z" fill="#1b4571" stroke="transparent" stroke-width="0" rx="0%" data-fill-palette-color="quaternary"></path><path d="M9.85 130.751v-120.901h248.236v120.901z" fill="#ffffff" stroke="transparent" stroke-width="0" data-fill-palette-color="tertiary"></path></g><g transform="matrix(1,0,0,1,19.69974,19.69974)" id="textblocktransform"><svg viewBox="0 0 228.53641450549452 101.20104000000002" height="101.20104000000002" width="228.53641450549452" id="textblock"><g><svg viewBox="0 0 228.53641450549452 101.20104000000002" height="101.20104000000002" width="228.53641450549452"><g transform="matrix(1,0,0,1,0,0)"><svg width="228.53641450549452" viewBox="1.5 -35.70000076293945 82.19999694824219 36.400001525878906" height="101.20104000000002" data-palette-color="#1b4571"><path d="M16.95 0.7Q12.55 0.7 9.05-1.53 5.55-3.75 3.53-7.88 1.5-12 1.5-17.5L1.5-17.5Q1.5-23 3.5-27.13 5.5-31.25 9.05-33.48 12.6-35.7 17.05-35.7L17.05-35.7Q21.35-35.7 24.9-34.05L24.9-34.05 24.2-27.95Q22.35-28.75 20.95-29.15 19.55-29.55 17.85-29.55L17.85-29.55Q13.3-29.55 10.75-26.35 8.2-23.15 8.2-17.5L8.2-17.5Q8.2-11.85 10.75-8.65 13.3-5.45 17.8-5.45L17.8-5.45Q19.55-5.45 20.95-5.85 22.35-6.25 24.2-7.05L24.2-7.05 24.9-0.95Q21.6 0.7 16.95 0.7L16.95 0.7ZM29.5 0L29.5-35 40.8-35Q45.1-35 48.45-32.9 51.8-30.8 53.7-26.85 55.6-22.9 55.6-17.5L55.6-17.5Q55.6-12.1 53.7-8.15 51.8-4.2 48.45-2.1 45.1 0 40.8 0L40.8 0 29.5 0ZM35.6-5.6L40.8-5.6Q44.8-5.6 46.85-8.75 48.9-11.9 48.9-17.5L48.9-17.5Q48.9-23.1 46.85-26.25 44.8-29.4 40.8-29.4L40.8-29.4 35.6-29.4 35.6-5.6ZM74.25 0.7Q69.6 0.7 66.07-1.55 62.55-3.8 60.6-7.93 58.65-12.05 58.65-17.5L58.65-17.5Q58.65-23 60.7-27.13 62.75-31.25 66.35-33.48 69.95-35.7 74.5-35.7L74.5-35.7Q78.95-35.7 82.7-34.05L82.7-34.05 82-27.95Q80.05-28.75 78.57-29.15 77.1-29.55 75.3-29.55L75.3-29.55Q70.6-29.55 67.97-26.35 65.35-23.15 65.35-17.5L65.35-17.5Q65.35-11.75 67.77-8.6 70.2-5.45 74.8-5.45L74.8-5.45Q76.35-5.45 77.6-5.9L77.6-5.9 77.6-11.95 73.6-11.95 73.6-17.55 83.7-17.55 83.7-1.85Q82-0.65 79.55 0.03 77.1 0.7 74.25 0.7L74.25 0.7Z" opacity="1" transform="matrix(1,0,0,1,0,0)" fill="#1b4571" class="wordmark-text-0" data-fill-palette-color="quaternary" id="text-0"></path></svg></g></svg></g></svg></g></svg></g><g></g></svg></g><defs></defs></svg><rect width="267.9358945054945" height="140.60052000000002" fill="none" stroke="none" visibility="hidden"></rect></g></svg></g></svg>