<svg xmlns="http://www.w3.org/2000/svg" version="1.1" xmlns:xlink="http://www.w3.org/1999/xlink" xmlns:svgjs="http://svgjs.dev/svgjs" width="1000" height="1000" viewBox="0 0 1000 1000"><rect width="1000" height="1000" fill="#ffffff"></rect><g transform="matrix(0.7,0,0,0.7,149.57575757575756,386.3092315262521)"><svg viewBox="0 0 396 129" data-background-color="#ffffff" preserveAspectRatio="xMidYMid meet" height="325" width="1000" xmlns="http://www.w3.org/2000/svg" xmlns:xlink="http://www.w3.org/1999/xlink"><g id="tight-bounds" transform="matrix(1,0,0,1,0.2400000000000091,-0.033586228072636004)"><svg viewBox="0 0 395.52 129.06717245614527" height="129.06717245614527" width="395.52"><g><svg viewBox="0 0 523.9182120911178 170.96642959364783" height="129.06717245614527" width="395.52"><g transform="matrix(1,0,0,1,128.39821209111776,52.831108304530595)"><svg viewBox="0 0 395.52 65.30421298458664" height="65.30421298458664" width="395.52"><g><svg viewBox="0 0 395.52 65.30421298458664" height="65.30421298458664" width="395.52"><g><svg viewBox="0 0 395.52 65.30421298458664" height="65.30421298458664" width="395.52"><g transform="matrix(1,0,0,1,0,0)"><svg width="395.52" viewBox="5.550000190734863 -34.79999923706055 214.0800018310547 35.349998474121094" height="65.30421298458664" data-palette-color="#729343"><path d="M19.3-18.15Q22.8-17.75 25-15.68 27.2-13.6 27.2-9.5L27.2-9.5Q27.2-4.7 23.95-2.35 20.7 0 14.9 0L14.9 0 5.55 0 5.55-34.25 13.2-34.25Q19.15-34.25 22.38-32.1 25.6-29.95 25.6-25.7L25.6-25.7Q25.6-22.55 23.88-20.6 22.15-18.65 19.3-18.15L19.3-18.15ZM13.5-31.75L8.55-31.75 8.55-19.2 15.45-19.2Q18.65-19.2 20.6-20.88 22.55-22.55 22.55-25.5L22.55-25.5Q22.55-28.85 20.28-30.3 18-31.75 13.5-31.75L13.5-31.75ZM14.9-2.5Q24.1-2.5 24.1-9.5L24.1-9.5Q24.1-13.2 21.83-15 19.55-16.8 15.8-16.8L15.8-16.8 8.55-16.8 8.55-2.5 14.9-2.5ZM47.15-34.8Q51.35-34.8 54.5-32.77 57.65-30.75 59.4-26.75 61.15-22.75 61.15-17.1L61.15-17.1Q61.15-11.55 59.42-7.58 57.7-3.6 54.55-1.53 51.4 0.55 47.15 0.55L47.15 0.55Q43 0.55 39.85-1.5 36.7-3.55 34.95-7.5 33.2-11.45 33.2-17.05L33.2-17.05Q33.2-22.6 34.95-26.6 36.7-30.6 39.87-32.7 43.05-34.8 47.15-34.8L47.15-34.8ZM47.15-32.25Q42.15-32.25 39.25-28.43 36.35-24.6 36.35-17.05L36.35-17.05Q36.35-9.6 39.27-5.8 42.2-2 47.15-2L47.15-2Q52.3-2 55.15-5.78 58-9.55 58-17.1L58-17.1Q58-24.7 55.12-28.48 52.25-32.25 47.15-32.25L47.15-32.25ZM81.7-34.8Q85.9-34.8 89.05-32.77 92.2-30.75 93.95-26.75 95.7-22.75 95.7-17.1L95.7-17.1Q95.7-11.55 93.97-7.58 92.25-3.6 89.1-1.53 85.95 0.55 81.7 0.55L81.7 0.55Q77.55 0.55 74.4-1.5 71.25-3.55 69.5-7.5 67.75-11.45 67.75-17.05L67.75-17.05Q67.75-22.6 69.5-26.6 71.25-30.6 74.42-32.7 77.6-34.8 81.7-34.8L81.7-34.8ZM81.7-32.25Q76.7-32.25 73.8-28.43 70.9-24.6 70.9-17.05L70.9-17.05Q70.9-9.6 73.82-5.8 76.75-2 81.7-2L81.7-2Q86.85-2 89.7-5.78 92.55-9.55 92.55-17.1L92.55-17.1Q92.55-24.7 89.67-28.48 86.8-32.25 81.7-32.25L81.7-32.25ZM104.54-34.25L107.54-34.25 107.54 0 104.54 0 104.54-34.25ZM122.04-34.25L125.49-34.25 111.29-18.5 126.34 0 122.69 0 107.74-18.35 122.04-34.25ZM162.44-34.25L165.29-34.25 157.79 0 154.04 0 146.54-30.9 139.04 0 135.39 0 127.84-34.25 130.89-34.25 137.39-2.8 144.89-34.25 148.24-34.25 155.89-2.8 162.44-34.25ZM172.39-34.25L189.79-34.25 189.44-31.75 175.39-31.75 175.39-19 187.54-19 187.54-16.5 175.39-16.5 175.39-2.5 190.14-2.5 190.14 0 172.39 0 172.39-34.25ZM211.74-18.15Q215.24-17.75 217.44-15.68 219.63-13.6 219.63-9.5L219.63-9.5Q219.63-4.7 216.38-2.35 213.13 0 207.34 0L207.34 0 197.99 0 197.99-34.25 205.63-34.25Q211.59-34.25 214.81-32.1 218.03-29.95 218.03-25.7L218.03-25.7Q218.03-22.55 216.31-20.6 214.59-18.65 211.74-18.15L211.74-18.15ZM205.94-31.75L200.99-31.75 200.99-19.2 207.88-19.2Q211.09-19.2 213.03-20.88 214.99-22.55 214.99-25.5L214.99-25.5Q214.99-28.85 212.71-30.3 210.44-31.75 205.94-31.75L205.94-31.75ZM207.34-2.5Q216.53-2.5 216.53-9.5L216.53-9.5Q216.53-13.2 214.26-15 211.99-16.8 208.24-16.8L208.24-16.8 200.99-16.8 200.99-2.5 207.34-2.5Z" opacity="1" transform="matrix(1,0,0,1,0,0)" fill="#729343" class="undefined-text-0" data-fill-palette-color="primary" id="text-0"></path></svg></g></svg></g></svg></g></svg></g><g><svg viewBox="0 0 112.98145470656847 170.96642959364783" height="170.96642959364783" width="112.98145470656847"><g><svg version="1.1" xmlns="http://www.w3.org/2000/svg" xmlns:xlink="http://www.w3.org/1999/xlink" x="0" y="0" viewBox="0 0 66.08399963378906 100" enable-background="new 0 0 66.084 100" xml:space="preserve" width="112.98145470656847" height="170.96642959364783" class="icon-icon-0" data-fill-palette-color="accent" id="icon-0"><path d="M19.354 0L0 6.911v66.004L47.722 100l4.081-1.458V95.92l10.201-3.644v2.623l4.08-1.457V26.551L19.354 0zM62.003 87.944l-10.2 3.643-0.001-59.936L9.755 7.761l9.209-3.29 43.039 24.455V87.944z" fill="#729343" data-fill-palette-color="accent"></path></svg></g></svg></g></svg></g><defs></defs></svg><rect width="395.52" height="129.06717245614527" fill="none" stroke="none" visibility="hidden"></rect></g></svg></g></svg>