<svg xmlns="http://www.w3.org/2000/svg" viewBox="0 0 352.78 213.42"><defs><style>.cls-1{isolation:isolate;}.cls-2{fill:#594e49;opacity:0.2;}.cls-13,.cls-2,.cls-25,.cls-7,.cls-8{mix-blend-mode:multiply;}.cls-3{fill:#f1e7d4;}.cls-4,.cls-7{fill:#dcd5c2;}.cls-5{fill:#635e4f;}.cls-6{fill:#8e897e;}.cls-13,.cls-7{opacity:0.1;}.cls-8{fill:#2b2623;opacity:0.6;}.cls-9{fill:#f3f4f4;}.cls-10,.cls-13{fill:#dfdfdf;}.cls-11{fill:#c7c1b5;}.cls-12{fill:#919191;}.cls-14{fill:#e7eaed;}.cls-15{fill:#586369;}.cls-16{fill:#434e57;}.cls-17{fill:#637178;}.cls-18{fill:#918379;}.cls-19{fill:#917c5c;}.cls-20{fill:#cc8d71;}.cls-21{fill:#ba7a58;}.cls-22{fill:#db9577;}.cls-23{fill:#decfb6;}.cls-24{fill:#c6ac89;}.cls-25{fill:#180000;opacity:0.5;}.cls-26{fill:#7f6a54;}.cls-27{fill:#69706e;}.cls-28{fill:#aa9981;}.cls-29{fill:#575e5c;}.cls-30{fill:#727a78;}.cls-31{fill:#868e8c;}.cls-32{fill:#a08465;}.cls-33{opacity:0.8;}.cls-34{fill:#5b4c3e;}.cls-35{fill:#7a3d33;}.cls-36{fill:#964941;}.cls-37{fill:#dac8a2;}.cls-38{fill:#894d46;}.cls-39{fill:#99514d;}</style></defs><g class="cls-1"><g id="Layer_2" data-name="Layer 2"><g id="Graphic_Elements" data-name="Graphic Elements"><path class="cls-2" d="M4.85,143.65c-2.23,2.18-4.28,4.78-4.74,7.86-1.14,7.56,7.15,12.79,14.2,15.74a653.64,653.64,0,0,0,150.32,42.62c19.17,3,38.79,5.18,57.92,1.93,33.06-5.61,61.14-26.58,87.81-46.91,5.23-4,11.1-9.77,9.14-16.06-1.32-4.23-5.71-6.59-9.74-8.43a346.67,346.67,0,0,0-125.7-30.56c-39.38-2-75,5.75-113.2,12.75C49.05,126.58,21.69,127.16,4.85,143.65Z"/><path class="cls-3" d="M25,138.7l3.79,1,184.52,48.07,3.6.93h0l118.07-47,2.16-.87,2-.79,5.65-2.25,8-3.17c-1,.39-5.13-1.34-6.26-1.64l-18.75-4.88c-6.11-1.62-12.23-3.82-18.28-5.5-1.27-.35-2.53-.68-3.79-1-13.4-3.14-26.52-6.17-39.95-9.67l-32.29-8.41c-10.31-2.69-20.49-7.06-30.65-8.22-7.67-.86-15.41-4.09-23-6.69a36.76,36.76,0,0,0-8.73-1.79c-2.23-.23-8.62-2.84-10.2-2.21-3.9,1.55-7.79,3.11-11.69,4.65-7.76,3.09-17.17,5.44-24,9.72-2.37,1.48-4.52,3.26-7.23,4.24-7.3,2.65-14.8,5-22.14,7.54-4.48,1.56-8.38,4.44-12.61,6.58a24.88,24.88,0,0,1-6.34,2.35,118.52,118.52,0,0,0-19.7,6.22L54,127.14Z"/><polygon class="cls-4" points="352.77 134.58 352.55 143.34 216.7 197.44 216.92 188.69 352.77 134.58"/><polygon class="cls-5" points="28.79 139.68 28.57 148.44 216.7 197.44 216.93 188.69 28.79 139.68"/><polygon class="cls-6" points="25.01 138.7 24.97 140.21 216.89 190.2 216.93 188.69 25.01 138.7"/><polygon class="cls-6" points="24.82 146.19 24.78 147.46 216.7 197.44 216.74 196.18 24.82 146.19"/><polygon class="cls-6" points="213.33 187.75 213.11 196.51 216.7 197.44 216.93 188.69 213.33 187.75"/><path class="cls-7" d="M54,127.14a260.55,260.55,0,0,0,52.24,22l1.82.55c27.64,8.19,55.33,12.34,82.83,16.09,12.27,1.69,24.65,3.28,36.26,2.24a143.83,143.83,0,0,0,15.14-2.39c3.86-.75,7.71-1.5,11.68-2,10.09-1.27,20.92-.94,30.16-4a48,48,0,0,0,14.64-8.31c7.69-6.17,14-13.73,22-19.54,1.44-1,4.51-2.2,7-3.66-6.11-1.62-12.23-3.82-18.28-5.5-1.27-.35-2.53-.68-3.79-1-13.4-3.14-26.52-6.17-39.95-9.67l-32.29-8.41c-10.31-2.69-20.49-7.06-30.65-8.22-7.67-.86-15.41-4.09-23-6.69a36.76,36.76,0,0,0-8.73-1.79c-2.23-.23-8.62-2.84-10.2-2.21-3.9,1.55-7.79,3.11-11.69,4.65-7.76,3.09-17.17,5.44-24,9.72-2.37,1.48-4.52,3.26-7.23,4.24-7.3,2.65-14.8,5-22.14,7.54-4.48,1.56-8.38,4.44-12.61,6.58a24.88,24.88,0,0,1-6.34,2.35,118.52,118.52,0,0,0-19.7,6.22Z"/><path class="cls-8" d="M269.55,107.55c-.69,1.15-1.41,2.3-2.14,3.42a74.16,74.16,0,0,1-8.32,10.83c-4.9,5.15-10.57,9-16,13.21-7.89,6-15.4,12.71-22.92,19.39-1.82,1.62-3.62,3.23-5.36,4.95a49.65,49.65,0,0,0-4.38,4.86,46.48,46.48,0,0,1-5,6c-1.91,1.68-4.39,2.71-6.62,1.83-10-3.88-20.52-2.77-30.92-4-9.48-1.1-19-2.21-28.23-5h0l-1.36-.41c-1-.31-2-.65-3-1a74.11,74.11,0,0,1-13.56-6.54c-.86-.52-1.7-1.06-2.54-1.63h0a75.39,75.39,0,0,1-14-12c-.2-.21-.39-.41-.57-.62a74.74,74.74,0,0,1-12.3-18.81c1-.67,2.07-1.31,3.14-1.93,5.32-3.07,9.42-9.43,14.44-13.23,5.59-4.25,11.3-8.26,16.86-12.57,2.06-1.6,3.71-3.86,5.52-5.87,5.21-5.83,12.36-10.3,18.28-15.15q3.9-3.21,7.79-6.4a21.23,21.23,0,0,1,7,2c6.11,3,12.32,6.7,18.49,7.62,8.19,1.24,16.35,6.29,24.64,9.35q13,4.78,26,9.54c8.81,3.24,17.46,6.12,26.2,9,1,.35,2,.68,3.07,1l2.86.94C267.51,106.76,268.53,107.14,269.55,107.55Z"/><path class="cls-9" d="M304.48,72l-40.83,33.5L201,156.89l-2.72-.11-79.13-3.23h0l-60.34-2.45L56,151Q67,141.91,78,132.86c.8-.66,1.6-1.31,2.4-2a119.43,119.43,0,0,1,11.85-8.75c1-.67,2.07-1.31,3.14-1.93,5.32-3.07,9.42-9.43,14.44-13.23,5.59-4.25,11.3-8.26,16.86-12.57,2.06-1.6,3.71-3.86,5.52-5.87,5.21-5.83,12.36-10.3,18.28-15.15q3.9-3.21,7.79-6.4l1.11-.9c1.2-1,6,.15,7.71-.15a20.27,20.27,0,0,1,6.6-.2c5.75.85,11.59,2.29,17.39,1.4,7.69-1.18,15.38.86,23.17,1.18q12.19.51,24.41,1c10.14.41,20.06.43,30.2.5,5.5,0,11.09,1.15,16.67,1.41l14.17.57C300.61,71.82,303.73,72.6,304.48,72Z"/><polygon class="cls-10" points="304.48 71.99 304.24 80.75 200.77 165.65 201.02 156.89 304.48 71.99"/><polygon class="cls-11" points="58.82 151.09 58.58 159.86 200.77 165.66 201.02 156.89 58.82 151.09"/><polygon class="cls-12" points="55.96 150.97 55.92 152.49 200.98 158.4 201.02 156.89 55.96 150.97"/><polygon class="cls-12" points="55.75 158.48 55.71 159.75 200.77 165.66 200.81 164.39 55.75 158.48"/><polygon class="cls-12" points="198.3 156.78 198.05 165.55 200.77 165.66 201.02 156.89 198.3 156.78"/><path class="cls-13" d="M285.58,71.21c-1.87,2-4.2,3.87-5.3,5.23-6.15,7.63-11,16.59-16.89,24.48-.91,1.22-1.85,2.41-2.81,3.55a48.21,48.21,0,0,1-8.36,8.07c-7,5.17-15.24,7.32-22.9,10.89-6.9,3.22-13.38,7.59-20.37,10.51-8.82,3.68-18.18,4.92-27.47,6.05-20.82,2.55-41.78,4.75-62.65,2.9-4.75-.42-9.51-1.06-14.24-1.95A122,122,0,0,1,78,132.86c.8-.66,1.6-1.31,2.4-2a119.43,119.43,0,0,1,11.85-8.75c1-.67,2.07-1.31,3.14-1.93,5.32-3.07,9.42-9.43,14.44-13.23,5.59-4.25,11.3-8.26,16.86-12.57,2.06-1.6,3.71-3.86,5.52-5.87,5.21-5.83,12.36-10.3,18.28-15.15q3.9-3.21,7.79-6.4l1.11-.9c1.2-1,6,.15,7.71-.15a20.27,20.27,0,0,1,6.6-.2c5.75.85,11.59,2.29,17.39,1.4,7.69-1.18,15.38.86,23.17,1.18q12.19.51,24.41,1c10.14.41,20.06.43,30.2.5C274.41,69.84,280,71,285.58,71.21Z"/><path class="cls-14" d="M276.62,89.54c-7.77,6.78-19.58,3-28.57,2.47q-17.36-1-34.7-2-17.74-1-35.5-2-8.88-.49-17.76-1c-4.86-.26-12,.88-16.35-1.45,3.59-5.64,8.59-10.5,13.22-14.88,2.26-2.14,4.46-1.38,7.14-1.11,15,1.56,30,2.35,45,3.14l12.41.65,12.2.63c19.74,1,39.17-.16,58.93,1.45-2.58-.21-8.75,7.1-10.77,9C280.29,86,278.49,87.91,276.62,89.54Z"/><path class="cls-8" d="M216.91,142.63a63.32,63.32,0,0,1-12.12,1.09,67.76,67.76,0,0,1-11.23-1.65l-68.33-14c-3.49-.71-7.79-2.32-7.92-5.89-.11-3.07,3.11-5.12,6-6.11a69.85,69.85,0,0,1,13-2.63l74.34-10.2c14-1.92,28.17-3.85,42.3-3,13.43.79,26.69,4.06,40.14,4,9.7-.07,19.3-1.9,29-2.76,7.6-.68,13,5.44,4.69,9.7-8,4.11-17,6.93-25.49,9.95a473.93,473.93,0,0,1-53.52,15.56Q232.44,140.16,216.91,142.63Z"/><path class="cls-15" d="M105.56,120.22h0A0,0,0,0,0,105.56,120.22Zm0,0h0A0,0,0,0,0,105.56,120.22Zm238.2-27.83-7,1.5-1.41.29-39.57,8.44h0l-.15,0-17.27,3.69L272,107.69l-.36.07a1.8,1.8,0,0,0-.32.06L254.6,111.4c3.83-.85,7.68-1.69,11.51-2.52l-12.78,2.78-33.51,7.15L214.27,120l-8.5,1.81-2.22-.43-2.22-.44-3.45-.67-19.74-3.83-.28-.07h0l-1.34-.25-9.29-1.82h0l-13.74-2.68-36.39-7.08c-1.47-.37-3-.71-4.47-1,1.44.29,2.87.61,4.29,1l-15.18-3-.72-.13-.62-.12-.78-.16-1-.19-.19,0-.08,0L89,99.06h0v2.56l5.16,1v15.51l-1.41-.27-.51-.1c-1-.21-1.81-.39-2.38-.56l-.33-.09a1.84,1.84,0,0,1-.39-.14l-.1,0s0,0,0-.06v2.55c0,.55,16,3.16,17.34,3.52,1.85.48,3.63,1.19,5.47,1.74,4.61,1.35,9.28,1.17,14,1.86,3.93.57,7.88,1.57,11.78,2.34,4.15.8,8.31,1.54,12.45,2.39l6.5,1.34c1.37.27,2.74.56,4.1.84,13.33,2.74,26.71,5.12,40.08,7.71l.67.12h.08l.2,0,.36,0h0l.16,0h0l.07,0,.15,0,.19,0,.37.06.37.06.22,0,.31.07H204l.22,0,.14,0h.16l.08,0h0l.08,0,.29.06.18,0h.12l.14,0,.09,0h0l.12,0h.05l0,0c0-1.42,32.35-6.61,35.06-7.27l10.36-2.53c10.78-2.62,21.7-4.69,32.54-7.06,5.42-1.2,10.83-2.45,16.17-3.91a47.75,47.75,0,0,1,7.08-.83c2.39-.28,4.34-1.42,6.64-2.18a31.38,31.38,0,0,1,5.52-1c6.71-.93,13.58-2.26,20.18-3.66l4.45-1V92.39ZM103.22,119.8h.11Zm2.35.43a0,0,0,0,0,0,0h0l-.08,0,.12,0h0Z"/><path class="cls-16" d="M343.76,92.39v20.35l-4.45,1c-6.6,1.4-13.47,2.72-20.17,3.65a31.4,31.4,0,0,0-5.52,1c-2.3.75-4.26,1.9-6.65,2.17a48.85,48.85,0,0,0-7.07.84c-5.35,1.45-10.75,2.71-16.17,3.91-10.85,2.37-21.76,4.43-32.55,7.06q-5.18,1.27-10.35,2.52c-2.71.67-35.06,5.86-35.06,7.28V121.8l8.49-1.81,39.07-8.33,1.27-.26,16.76-3.58a1.52,1.52,0,0,1,.32-.06l.36-.08,23.56-5,.15,0,0,0,39.57-8.43,1.41-.29,7-1.5Z"/><path class="cls-17" d="M343.76,92.39l-7,1.5-1.41.29-39.57,8.44.8-.23-1,.27-17.27,3.69L272,107.69l-.36.07a1.8,1.8,0,0,0-.32.06c-1.75.34-3.51.68-5.25,1.06l-12.78,2.78-33.51,7.15L214.27,120l-8.5,1.81-2.22-.43-2.22-.44-3.45-.67-19.74-3.83-2.71-.67c.8.22,1.61.41,2.42.6l-1.34-.25-9.29-1.82h0l-13.74-2.68-36.39-7.08c-1.47-.37-3-.71-4.47-1,1.44.29,2.87.61,4.29,1l-15.18-3c1.46.27,2.92.51,4.38.77-2.18-.39-4.34-.77-6.5-1.18l-1-.19-.44-.1c-.39-.08-.81-.21-1.26-.34l-.79-.23-.93-.27-1.36-.38c-.32-.09-.64-.16-1-.23A14.2,14.2,0,0,0,91,99L90.51,99a6.36,6.36,0,0,0-1.07,0l-.38.05.37-.07.52-.13.21,0,3-.62,1.28-.28L98.47,97l1.69-.37,1.55-.33,14.34-3.06,1.13-.23,1.49-.32,5.12-1.09,4.68-1,2.65-.57.29-.06c.81-.16,1.61-.33,2.44-.52l5.2-1.1,1.57-.34,7.92-1.69,3-.63.26,0L163,83.28l11.16-2.38,2.82-.61.45-.09,6-1.28,10.42-2.22,2-.42L208,73.69l1.78-.38,2.74-.57c.86-.19,1.67-.37,2.47-.53l3.06-.66,1.28-.26,2-.43.78-.17,2.6-.55.66-.14,1.64-.35a3.24,3.24,0,0,1,.89,0l.47.06.31.06.43.11h0l1.13.31c.56.17,1.07.32,1.47.4l13.54,2.63c5.68,1.11,11.28,2.2,17,2.93,6.23.81,12.25,3,18.58,3.15,3.22.06,5.13,1.79,8.19,2.44,3.89.84,7.83,1.54,11.74,2.29q10.92,2.13,21.85,4.26l15,2.92.31.06C339.35,91.54,342.24,92.73,343.76,92.39Z"/><path class="cls-17" d="M89.94,98.84l-.52.13A3.56,3.56,0,0,1,89.94,98.84Z"/><path class="cls-17" d="M106.09,102.3c-1.47-.26-2.93-.5-4.38-.77l-.73-.13-.62-.12L98.82,101l-.43-.09-.08,0-.18,0,.44.1,1,.19C101.74,101.53,103.91,101.91,106.09,102.3Z"/><path class="cls-17" d="M167.19,114.29c-1.73-.07-3.45-.08-5.17-.24-6.56-.57-12.59-3.36-19.09-4.27-7.06-1-14.23-1.6-21.05-3.86-1.59-.52-3.19-1-4.82-1.39Z"/><path class="cls-17" d="M178.14,116.42l-.29-.06h0c-.81-.19-1.61-.39-2.41-.6C176.33,116,177.23,116.21,178.14,116.42Z"/><path class="cls-17" d="M203.55,121.37l-2.23-.41c-7.78-1.43-15.57-2.72-23.18-4.54l23.18,4.51Z"/><path class="cls-17" d="M214.26,120c-2.16.46-6.27,2.25-8.49,1.81Z"/><path class="cls-17" d="M253.33,111.66q-9.39,2.07-18.75,4.2c-6.72,1.53-13.56,2.7-20.32,4.13Z"/><path class="cls-17" d="M296.57,102.39l-.8.22,0,0C288,104.84,280,106.15,272,107.68l23.56-5C295.92,102.56,296.25,102.48,296.57,102.39Z"/><path class="cls-17" d="M343.75,92.39c-2.33.52-4.66,1-7,1.5Z"/><path class="cls-15" d="M205.77,121.8v2.56l-4.45-.87-49.48-9.63L94.12,102.61l-5.17-1V99.06h0l9.34,1.82.08,0,.18,0,1,.19.78.16.62.12,15.91,3.1.17,0,50.13,9.76h0l9.29,1.82,1.34.25h0l.29.06,23.18,4.51,2.23.44Z"/><path class="cls-15" d="M205.77,139.61v2.55c0-.16-4.83-.94-5.11-1-13.37-2.6-26.75-5-40.08-7.72l-4.1-.83-6.5-1.34c-4.14-.85-8.3-1.59-12.45-2.4-3.91-.76-7.85-1.76-11.79-2.34-4.69-.68-9.36-.5-14-1.86-1.84-.54-3.62-1.25-5.47-1.73C105,122.58,89,120,89,119.42v-2.56c0,.56,16,3.16,17.35,3.52,1.85.48,3.63,1.2,5.47,1.74,4.61,1.36,9.28,1.17,14,1.86,3.94.57,7.88,1.57,11.79,2.34,4.15.81,8.31,1.54,12.45,2.39l6.5,1.34,4.1.84c13.33,2.74,26.71,5.12,40.08,7.72C200.94,138.67,205.77,139.44,205.77,139.61Z"/><path class="cls-18" d="M205.77,124.36v15.25c0-.17-4.83-.94-5.11-1-13.37-2.6-26.75-5-40.08-7.72l-4.1-.84-6.5-1.34c-4.14-.85-8.3-1.58-12.45-2.39-3.91-.77-7.85-1.77-11.79-2.34-4.69-.69-9.36-.5-14-1.86-1.84-.54-3.62-1.26-5.47-1.74-.84-.22-7.38-1.32-12.18-2.25V102.61l57.72,11.25Z"/><path class="cls-19" d="M205.77,124.36v15.25c0-.17-4.83-.94-5.11-1-13.37-2.6-26.75-5-40.08-7.72l-4.1-.84-6.5-1.34c-4.14-.85-8.3-1.58-12.45-2.39-3.91-.77-7.85-1.77-11.79-2.34-4.69-.69-9.36-.5-14-1.86-1.84-.54-3.62-1.26-5.47-1.74-.84-.22-7.38-1.32-12.18-2.25v-4.24a101.17,101.17,0,0,1,20.92,2.9c3.35.83,6.66,1.83,10.06,2.5a50.08,50.08,0,0,0,24-1.3,3.65,3.65,0,0,0,1.64-.86,5.34,5.34,0,0,0,.85-2.57,5.17,5.17,0,0,1,.21-.7Z"/><path class="cls-15" d="M205.77,121.8v20.36l0,0h-.05l-.13,0h0l-.09,0-.13,0-.06,0h-.06l-.19,0-.29-.06-.08,0h0l-.08,0-.08,0h-.07l-.15,0-.21,0h-.14l-.54-.09-.36-.06-.37-.06-.35-.06-.07,0h0l-.16,0h0a1.8,1.8,0,0,1-.36-.06l-.21,0h-.08V120.93l2.23.44Z"/><path class="cls-8" d="M280.6,87c-.27-2.35-3.21-3.19-5.56-3.43-26.65-2.72-53.51-.15-80.22,1.87Q174.5,87,154.16,88.12q-9,.5-18.08.9l-2.23.47c-.83.18-1.64.36-2.45.52a1.91,1.91,0,0,1-.28.07l-2.66.56-4.67,1-5.12,1.09-1.48.32c-.39.09-.77.16-1.14.23l-14.34,3.06-1.55.33L98.47,97l-4.07.87c-.45.1-.89.18-1.28.28-1.26.27-2.26.47-3,.63l-.22,0-.29.06-.23.06-.37.07.38-.05a6.37,6.37,0,0,1,1.07,0L91,99a17.1,17.1,0,0,1,1.86.34c.3.06.61.14.94.23l1.36.38c.32.09.63.19.93.26l.79.25c.45.12.87.25,1.25.32a2.32,2.32,0,0,0,.42.1h0l1,.19c2.15.42,4.32.79,6.5,1.18l-4.38-.76-.73-.14-.1,0-.52-.1-.38-.07L98.81,101l-.42-.09-.09,0-.08,0L89,99.06h0v2.55l5.16,1,50.16,9.76,7.56,1.47,18.63,3.64h0l6.45-1.3.1,0-.4-.1-.35-.09-.85-.21.5.11,1.13.28h0q34.52-7,68.57-16.11,15-4,30-8.42C278,90.93,280.88,89.48,280.6,87Z"/><path class="cls-20" d="M51.92,97.35h0A0,0,0,0,0,51.92,97.35Zm0,0h0A0,0,0,0,0,51.92,97.35Zm232.84-27.2-6.84,1.46-1.38.29-38.68,8.24h0l-.15,0-16.88,3.61-6.15,1.31-.35.07a1.55,1.55,0,0,0-.31.06l-16.39,3.5,11.25-2.46L196.38,89l-32.77,7-5.42,1.16-8.31,1.77-2.16-.42-2.18-.43-3.37-.66-19.29-3.75-.28-.06h0l-1.31-.25-9.09-1.78h0L98.75,88.94,63.17,82c-1.43-.36-2.89-.69-4.36-1,1.41.29,2.81.6,4.19,1l-14.83-2.9L47.46,79l-.61-.12-.76-.15-1-.19-.18,0-.08,0-9.12-1.77h0v2.49l5,1V95.31L39.36,95l-.5-.1c-1-.2-1.76-.38-2.32-.54l-.32-.09a1.72,1.72,0,0,1-.38-.14l-.1,0s0,0,0-.06v2.5c0,.54,15.63,3.09,16.95,3.44,1.81.47,3.55,1.17,5.35,1.7,4.5,1.32,9.07,1.14,13.66,1.81,3.84.56,7.7,1.54,11.52,2.29,4,.79,8.12,1.51,12.17,2.34l6.35,1.31,4,.82c13,2.68,26.11,5,39.18,7.54l.65.11h.08l.2,0,.35.05h0l.16,0h0l.07,0,.15,0,.19,0,.36.06.36.06.21,0,.3.06h.14l.21,0,.14,0h0s0,0,0,0h.09l.08,0h0l.08,0,.28.06.18,0h.12l.13,0,.09,0h0l.12,0h0a0,0,0,0,0,0,0l0,0c0-1.39,31.63-6.46,34.28-7.11l10.12-2.47c10.54-2.57,21.21-4.59,31.81-6.91,5.3-1.16,10.58-2.39,15.81-3.81a46.66,46.66,0,0,1,6.91-.82c2.34-.27,4.25-1.39,6.5-2.13a30.83,30.83,0,0,1,5.39-1c6.56-.91,13.27-2.21,19.73-3.58l4.34-.93V70.15ZM49.64,96.94h.11Zm2.29.42a0,0,0,0,0,0,0h0l-.08,0,.12,0h0Z"/><path class="cls-21" d="M284.77,70.15V90l-4.35.93c-6.45,1.37-13.17,2.67-19.72,3.58a30.94,30.94,0,0,0-5.4,1c-2.25.74-4.15,1.86-6.49,2.13a46.79,46.79,0,0,0-6.92.82c-5.22,1.41-10.51,2.64-15.8,3.81-10.6,2.32-21.28,4.34-31.82,6.91l-10.12,2.47c-2.65.64-34.27,5.72-34.27,7.11V98.9l8.3-1.77L196.37,89l1.24-.26L214,85.23a1.55,1.55,0,0,1,.31-.06l.35-.07,23-4.92.15,0h0l38.68-8.24,1.37-.29,6.85-1.46Z"/><path class="cls-22" d="M284.76,70.15l-6.84,1.46-1.38.29-38.68,8.24.78-.22-.95.26-16.88,3.61-6.15,1.31-.35.07a1.55,1.55,0,0,0-.31.06c-1.72.33-3.44.67-5.14,1L196.38,89l-32.77,7-5.42,1.16-8.31,1.77-2.16-.42-2.18-.43-3.37-.66-19.29-3.75L120.23,93c.78.21,1.57.4,2.36.59l-1.31-.25-9.09-1.78h0L98.75,88.94,63.17,82c-1.43-.36-2.89-.69-4.36-1,1.41.29,2.81.6,4.19,1l-14.83-2.9c1.42.26,2.84.5,4.27.75-2.13-.38-4.24-.75-6.35-1.15l-1-.19-.43-.1c-.38-.08-.79-.2-1.23-.33l-.77-.22-.91-.26-1.33-.37c-.32-.09-.63-.16-.93-.23a16,16,0,0,0-1.8-.33l-.48-.05a6.13,6.13,0,0,0-1,0l-.37.05.36-.07.51-.12.21,0,2.88-.61L41,75.54l4-.85,1.65-.36c.49-.1,1-.2,1.52-.32l14-3,1.1-.23,1.46-.31,5-1.07,4.57-1,2.59-.55.28-.06,2.39-.51,5.09-1.08,1.53-.33c2.55-.53,5.14-1.09,7.74-1.64l2.89-.62.25,0,11-2.35L119,58.91l2.76-.59.44-.09L128.06,57l10.19-2.17,1.93-.42L152,51.87l1.74-.37,2.68-.56,2.42-.52,3-.64,1.25-.26L165,49.1l.77-.16,2.54-.54.64-.14,1.61-.34a3.1,3.1,0,0,1,.87,0l.46.06.29.06.42.1h0l1.11.31c.55.16,1,.31,1.44.39l13.23,2.57c5.56,1.09,11,2.14,16.63,2.86,6.09.79,12,3,18.16,3.08,3.15.06,5,1.75,8,2.39,3.8.82,7.65,1.5,11.48,2.24L264,66.11,278.71,69l.3.06C280.46,69.31,283.28,70.48,284.76,70.15Z"/><path class="cls-22" d="M36.66,76.45l-.51.12Z"/><path class="cls-22" d="M52.44,79.83c-1.43-.25-2.86-.49-4.28-.75L47.45,79l-.61-.12-1.51-.28-.42-.09-.08,0-.17,0,.43.1,1,.19C48.19,79.08,50.31,79.45,52.44,79.83Z"/><path class="cls-22" d="M112.17,91.55c-1.69-.07-3.38-.08-5.06-.23C100.7,90.76,94.8,88,88.46,87.15c-6.91-1-13.92-1.57-20.58-3.78Q65.56,82.6,63.17,82Z"/><path class="cls-22" d="M122.87,93.64l-.28-.06h0c-.79-.19-1.58-.38-2.36-.59Z"/><path class="cls-22" d="M147.71,98.48l-2.18-.4c-7.6-1.4-15.22-2.66-22.66-4.44l22.66,4.41Z"/><path class="cls-22" d="M158.18,97.13c-2.11.45-6.13,2.2-8.3,1.77Z"/><path class="cls-22" d="M196.37,89c-6.11,1.35-12.23,2.72-18.32,4.11-6.58,1.49-13.26,2.64-19.87,4Z"/><path class="cls-22" d="M238.64,79.92l-.78.22h0c-7.54,2.17-15.41,3.45-23.18,4.95l23-4.92Z"/><path class="cls-22" d="M284.76,70.15c-2.28.51-4.56,1-6.85,1.46Z"/><path class="cls-20" d="M149.88,98.9v2.49l-4.35-.85L97.16,91.13l-56.42-11-5.05-1v-2.5h0l9.12,1.78.08,0,.18,0,1,.19.76.15.61.12L63,82l.17,0,49,9.54h0l9.08,1.78,1.31.25h0l.28.06,22.66,4.41,2.18.43Z"/><path class="cls-20" d="M149.88,116.3v2.5c0-.16-4.72-.92-5-1-13.07-2.54-26.15-4.87-39.17-7.54l-4-.82-6.36-1.31c-4-.83-8.11-1.55-12.17-2.34-3.81-.75-7.67-1.73-11.52-2.29-4.58-.67-9.15-.49-13.66-1.82-1.79-.53-3.53-1.23-5.34-1.7-1.32-.34-17-2.89-17-3.43v-2.5c0,.54,15.64,3.09,17,3.44,1.81.47,3.55,1.17,5.34,1.7,4.51,1.32,9.08,1.14,13.66,1.81,3.85.56,7.71,1.54,11.52,2.29,4.06.79,8.13,1.51,12.17,2.34L101.7,107l4,.82c13,2.68,26.1,5,39.17,7.54C145.16,115.38,149.88,116.14,149.88,116.3Z"/><path class="cls-23" d="M149.88,101.39V116.3c0-.16-4.72-.92-5-1-13.07-2.54-26.15-4.86-39.17-7.54l-4-.82-6.36-1.31c-4-.83-8.11-1.55-12.17-2.34-3.81-.75-7.67-1.73-11.52-2.29-4.58-.67-9.15-.49-13.66-1.81-1.79-.53-3.53-1.23-5.34-1.7-.82-.22-7.22-1.29-11.91-2.2V80.14l56.42,11Z"/><path class="cls-24" d="M149.88,101.39V116.3c0-.16-4.72-.92-5-1-13.07-2.54-26.15-4.86-39.17-7.54l-4-.82-6.36-1.31c-4-.83-8.11-1.55-12.17-2.34-3.81-.75-7.67-1.73-11.52-2.29-4.58-.67-9.15-.49-13.66-1.81-1.79-.53-3.53-1.23-5.34-1.7-.82-.22-7.22-1.29-11.91-2.2V91.16A98.68,98.68,0,0,1,61.19,94c3.28.81,6.52,1.79,9.83,2.44a48.85,48.85,0,0,0,23.5-1.27,3.57,3.57,0,0,0,1.61-.84A5.31,5.31,0,0,0,97,91.82a5,5,0,0,1,.2-.69Z"/><path class="cls-20" d="M149.88,98.9v19.9l0,0a0,0,0,0,1,0,0h0l-.12,0h0l-.09,0-.13,0-.06,0h-.06l-.18,0-.28-.06-.08,0h0l-.08,0-.08,0h0s0,0,0,0h0l-.14,0-.21,0H148l-.52-.09-.36-.06-.36-.06-.34-.06-.07,0h0l-.16,0h0l-.35-.05-.2,0h-.08V98.05l2.18.43Z"/><path class="cls-25" d="M278.71,69c-18.92,6.25-38.42,10.57-57.9,14.82l-2.06.45-3,.66-36.49,7.95c-4.35,1-8.69,1.89-13.07,2.68-.85.16-1.7.3-2.55.44-2.87.47-5.74.86-8.63,1.12a97.82,97.82,0,0,1-12.81.3h-.51c-2.5-.12-5-.34-7.46-.64A196.07,196.07,0,0,1,111.09,92l-2.25-.56c-3.37-.83-6.73-1.65-10.09-2.49L45.05,75.66a4.51,4.51,0,0,1,0-1l1.65-.36c.49-.1,1-.2,1.52-.32l14-3,1.1-.23,1.46-.31,5-1.07,4.57-1,2.59-.55.28-.06,2.39-.51,5.09-1.08,1.53-.33c2.55-.53,5.14-1.09,7.74-1.64l2.89-.62.25,0,11-2.35L119,58.91l2.76-.59.44-.09L128.06,57l10.19-2.17,1.93-.42L152,51.87l1.74-.37,2.68-.56,2.42-.52,3-.64,1.25-.26L165,49.1l.77-.16,2.54-.54.64-.14,1.61-.34a3.1,3.1,0,0,1,.87,0l.46.06.29.06.42.1h0l1.11.31c.55.16,1,.31,1.44.39l13.23,2.57c5.56,1.09,11,2.14,16.63,2.86,6.09.79,12,3,18.16,3.08,3.15.06,5,1.75,8,2.39,3.8.82,7.65,1.5,11.48,2.24L264,66.11Z"/><path class="cls-26" d="M278.22,42.2c-.08-.73-1-7-.44-7.06l-.1,0,.11,0L266.21,32.7l-.49-.1h0L172.41,13,37.74,40.66h0v2.75L92,54.81l-9.49-2-40-8.41c.12,0-.24,12.27-.24,13.31,0,4.82.24,9.56.24,14.36l13,3.23c-5.85-1.45-17.76-4.41-17.76-4.42v2.74s19.37,4.82,20.84,5.19c4.16,1,8.54.64,12.71,1.69,4,1,7.92,1.85,12,2.69,3.7.78,7.18,2.22,10.76,3a13,13,0,0,0,2.57.14c6.89.21,14.38,2.64,21.13,4.06l24.39,5.13c.34.07.68.15,1,.21h0c.09-.65,17.45-3.51,18.87-3.8,1.2-.25,2.4-.49,3.61-.62.71-.08,1.42-.12,2.12-.23a20.35,20.35,0,0,0,2.77-.68l7.17-2.09c3.58-1,7.37-1.19,11.05-2L200.55,84a115.71,115.71,0,0,1,13.95-1.9A30.08,30.08,0,0,0,220,80.91c9.71-2.71,19.7-5.39,29.61-7.16,2.53-.45,5.11-.4,7.66-.64,3-.29,5.37-1.57,8.15-2.45,4-1.25,8.35-1.72,12.42-2.55.47-3.44.13-7.44,0-10.9C277.59,52.18,278.79,47.3,278.22,42.2ZM62.66,76.72c1.28.12,2.55.2,3.83.31C65.21,76.92,63.94,76.84,62.66,76.72ZM37.74,40.66c1-.2,2.74.41,4,.85Zm42.12,8.86c4.24.88,8.55,1.62,12.75,2.59.78.18,1.56.38,2.34.58Zm50.6,10.63a5.54,5.54,0,0,1,1,.07,4.87,4.87,0,0,1,.77.22l.61.21Zm18.07,1.55c2.44-.5,4.81-1,7.19-1.48Z"/><path class="cls-27" d="M143.12,93v2.75l-1-.22-24.39-5.13c-6.75-1.42-14.24-3.85-21.13-4.06A13,13,0,0,1,94,86.24c-3.58-.82-7.06-2.26-10.76-3-4-.84-8-1.69-12-2.69-4.17-1.05-8.55-.66-12.71-1.69-1.47-.37-20.84-5.17-20.84-5.19V70.89S57.1,75.7,58.57,76.07c4.16,1,8.54.64,12.71,1.69,4,1,7.92,1.85,12,2.69,3.7.78,7.18,2.23,10.76,3a13,13,0,0,0,2.57.14c6.89.21,14.38,2.63,21.13,4l24.39,5.13Z"/><path class="cls-28" d="M143.12,65.56V93l-1-.22-24.39-5.13c-6.75-1.42-14.24-3.84-21.13-4A13,13,0,0,1,94,83.5l-1.17-.29c-3.17-.84-6.29-2.07-9.59-2.76-4-.84-8-1.69-12-2.69-3.52-.89-7.18-.75-10.75-1.3-.66-.1-1.32-.23-2-.39l-16.09-4c0-4.8-.23-9.54-.24-14.36,0-1,.36-13.28.24-13.31l40,8.41c14.76,3.1,30.76,6.47,42.62,9Z"/><path class="cls-29" d="M277.79,68.11c-4.07.83-8.46,1.3-12.42,2.55-2.78.88-5.13,2.16-8.15,2.45-2.55.24-5.13.19-7.66.64-9.91,1.77-19.9,4.45-29.61,7.16a30.08,30.08,0,0,1-5.45,1.17A115.71,115.71,0,0,0,200.55,84l-11.84,2.43c-3.68.76-7.47.9-11.05,2l-7.17,2.09a20.35,20.35,0,0,1-2.77.68c-.7.11-1.41.15-2.12.23-1.21.13-2.41.37-3.61.62-1.42.29-18.88,3.17-18.88,3.81v-33L277.78,35.14c-.57.11.36,6.33.44,7.06.57,5.1-.63,10-.43,15C277.92,60.67,278.26,64.67,277.79,68.11Z"/><path class="cls-30" d="M277.79,35.14,172.41,13,37.73,40.66c1.33-.27,3.73.81,5,1.15,3.39.9,6.76,1.91,10.17,2.78,8.82,2.24,17.78,3,26.65,4.86,4.34.91,8.76,1.66,13.07,2.66,5.74,1.32,11.37,3.11,17.12,4.48,2.34.56,4.69,1.12,7,1.6,3.71.75,8.29,2.06,12.05,2a13.59,13.59,0,0,1,2.63,0,13,13,0,0,1,1.8.58c3.05,1.06,6.67,1.34,9.85,2,1.4.3,4.06-.83,5.42-1.11,4.18-.86,8.13-1.77,12.37-2.38,8.24-1.18,16.36-3.22,24.59-4.08,7.3-.76,14-3.42,21.08-5.1,5.05-1.2,10.15-1.17,15.28-2.23,6.24-1.3,12.27-3.68,18.48-4.85,6.38-1.21,12.68-2.83,19-4.14Z"/><path class="cls-29" d="M268.61,33.59l-15,3.07c-6.56,1.35-13,3-19.63,4.27-6.4,1.21-12.62,3.67-19.06,5-5.29,1.1-10.55,1.07-15.76,2.3C191.89,50,185,52.71,177.45,53.49c-8.48.89-16.86,3-25.36,4.22-4.37.62-8.45,1.56-12.76,2.45-1.35.27-3.91,1.34-5.39,1.17l-.1,0c-.43-.15-.86-.33-1.3-.46,1.42-.24,3.12-.89,4.12-1.1,4.32-.89,8.4-1.82,12.76-2.45,8.5-1.22,16.88-3.33,25.36-4.22,7.53-.78,14.44-3.53,21.74-5.25,5.2-1.24,10.47-1.2,15.75-2.3,6.45-1.34,12.66-3.8,19.06-5,6.59-1.25,13.08-2.92,19.64-4.27L266.3,33.1Z"/><path class="cls-27" d="M143.12,62.81v2.75L37.73,43.41V40.66Z"/><path class="cls-31" d="M268,33.09l-15,3.07c-6.56,1.35-13.05,3-19.64,4.27-6.39,1.21-12.62,3.67-19,5-5.29,1.1-10.55,1.07-15.76,2.31-7.29,1.72-14.22,4.47-21.73,5.25-8.48.89-16.87,3-25.36,4.22-4.38.62-8.45,1.56-12.76,2.45-1.35.28-3.92,1.34-5.4,1.17l-.1,0c-.43-.15-.85-.33-1.29-.46,1.41-.23,3.11-.89,4.12-1.1,4.32-.89,8.4-1.82,12.76-2.45,8.49-1.22,16.88-3.33,25.36-4.22,7.52-.78,14.44-3.53,21.73-5.25,5.21-1.24,10.47-1.2,15.76-2.3,6.44-1.34,12.66-3.8,19.05-5,6.6-1.25,13.08-2.92,19.65-4.26l15.33-3.15Z"/><path class="cls-32" d="M143.12,65.56V93l-1-.22-24.39-5.13c-6.75-1.42-14.24-3.84-21.13-4A13,13,0,0,1,94,83.5l-1.17-.29c-3.17-.84-6.29-2.07-9.59-2.76-4-.84-8-1.69-12-2.69-3.52-.89-7.18-.75-10.75-1.3a24.46,24.46,0,0,0-4.86-2.87,18.71,18.71,0,0,1-4.14-2.09c-3.67-2.86-3.55-8.34-3.09-13,.2-2,.5-4.22,2-5.52a7.2,7.2,0,0,1,4.78-1.23c5.36,0,10.64,1.28,16,1.83a35.9,35.9,0,0,0,11.26-.8c14.76,3.1,30.76,6.47,42.62,9Z"/><path class="cls-26" d="M143.12,65.56V93l-1-.22-24.39-5.13c-6.75-1.42-14.24-3.84-21.13-4A13,13,0,0,1,94,83.5l-1.17-.29c-1.71-1-3.45-1.89-5.18-2.82a17.94,17.94,0,0,1-5-3.42,6.24,6.24,0,0,1-1.78-5.54,7,7,0,0,1,1.79-3c4.22-4.52,11-5.57,17.17-5.34s12.41,1.49,18.53.51a37.32,37.32,0,0,0,6.75-1.85Z"/><path class="cls-27" d="M143.12,62.81v33l-1-.22L139.57,95v-33Z"/><g class="cls-33"><path class="cls-34" d="M139.52,69c-5.7-1.27-11.33-2.76-16.61-4.17a59.43,59.43,0,0,0-6.5-1.23c-1.71-.26-3.47-.53-5.2-.92L72.49,54c-1.43-.32-2.94-.59-4.4-.86A59.66,59.66,0,0,1,59,51a68,68,0,0,0-10.9-2.58c-1.87-.34-3.8-.68-5.69-1.11l.1-.48c1.89.43,3.82.77,5.68,1.11a69.14,69.14,0,0,1,11,2.6,59.64,59.64,0,0,0,9,2.14c1.46.27,3,.54,4.42.86l38.72,8.65c1.71.38,3.47.65,5.16.9A61,61,0,0,1,123,64.32c5.27,1.41,10.89,2.89,16.58,4.16Z"/><path class="cls-34" d="M139.52,72.36c-4.85-1.07-10-2.3-15.69-3.75l-1.55-.4c-2.33-.61-4.73-1-7-1.44-1.65-.29-3.35-.59-5-1l-1.35-.29L106.57,65c-1.93-.4-3.93-.82-5.91-1.28l-3.84-.89c-1.65-.38-2.92-.66-4.12-.91-3.39-.71-6.84-1.46-10.17-2.19q-4.16-.92-8.31-1.8c-1.39-.3-2.78-.6-4.17-.92s-2.75-.58-4.12-.85a58.75,58.75,0,0,1-8.25-2,69.11,69.11,0,0,0-10.2-2.44c-1.66-.31-3.37-.63-5-1l.1-.47c1.68.37,3.38.69,5,1a68.17,68.17,0,0,1,10.27,2.46,58.47,58.47,0,0,0,8.18,2c1.37.27,2.79.54,4.14.86s2.78.62,4.17.91c2.77.59,5.53,1.19,8.3,1.8C86,60,89.41,60.77,92.8,61.48c1.2.25,2.47.53,4.13.91l3.84.9c2,.46,4,.87,5.9,1.27L109,65l1.35.29c1.67.36,3.37.66,5,1,2.33.41,4.73.83,7.08,1.44l1.55.4c5.71,1.45,10.83,2.68,15.67,3.76Z"/><path class="cls-34" d="M139.52,75.77c-4.79-1.07-10.46-2.34-16.26-3.74l-1.61-.4c-2.71-.7-5.48-1.25-8.15-1.78-1.44-.28-2.88-.57-4.32-.88l-1.39-.29-2.38-.46c-2-.39-4.06-.79-6.11-1.28l-1.65-.41L95.34,66c-1.16-.27-2.69-.62-4.26-.93-3.52-.68-7.08-1.45-10.53-2.19-2.82-.61-5.74-1.24-8.61-1.81-1.62-.33-3-.61-4.32-.94s-2.55-.56-3.82-.82a63,63,0,0,1-7.46-1.86,72,72,0,0,0-9.56-2.32c-1.43-.28-2.9-.56-4.35-.89l.1-.47c1.45.32,2.92.6,4.34.88A73.37,73.37,0,0,1,56.5,57a59.29,59.29,0,0,0,7.4,1.85c1.27.26,2.58.53,3.83.83s2.7.6,4.3.93c2.88.57,5.8,1.2,8.62,1.81,3.45.74,7,1.51,10.52,2.19,1.58.31,3.12.66,4.28.94l2.31.56,1.66.4c2,.49,4.09.89,6.09,1.28l2.37.46,1.41.29c1.43.31,2.87.6,4.3.88,2.69.53,5.46,1.09,8.18,1.78l1.6.4c5.8,1.4,11.47,2.68,16.25,3.74Z"/><path class="cls-34" d="M139.52,79.17l-5.6-1.23c-3.68-.8-7.49-1.63-11.24-2.5L121,75c-4.54-1.13-9-2.11-12.85-2.91l-1.44-.29-2.46-.45c-2.07-.37-4.21-.75-6.33-1.28l-1.7-.43c-.8-.2-1.59-.41-2.39-.6-1.72-.42-3.12-.73-4.4-1-3.64-.66-7.34-1.44-10.91-2.2-2.91-.61-5.92-1.25-8.89-1.82-1.44-.27-3-.57-4.47-.95-1.13-.28-2.31-.54-3.46-.79A65.47,65.47,0,0,1,55,60.64a79,79,0,0,0-9-2.23c-1.18-.24-2.36-.48-3.53-.74l.1-.47c1.18.26,2.35.5,3.52.73a80.52,80.52,0,0,1,9.1,2.24,66,66,0,0,0,6.68,1.71c1.14.26,2.33.52,3.47.8,1.47.37,2.94.66,4.44.94,3,.57,6,1.21,8.9,1.83,3.57.75,7.26,1.53,10.9,2.19,1.29.23,2.7.54,4.43,1l2.39.6,1.7.43c2.1.53,4.23.91,6.29,1.28l2.47.45c.48.1,1,.19,1.45.3,3.81.8,8.32,1.77,12.87,2.91l1.65.4c3.75.86,7.55,1.69,11.24,2.49l5.59,1.23Z"/><path class="cls-34" d="M139.52,82.57c-2.92-.65-5.87-1.26-8.73-1.86s-5.79-1.21-8.68-1.85l-1.72-.4L117,77.61c-3.2-.8-6.51-1.63-9.81-2.31-.49-.11-1-.2-1.48-.29-.87-.16-1.72-.3-2.58-.44-2.12-.36-4.32-.73-6.51-1.29l-1.7-.44-2.51-.66c-1.81-.45-3.21-.75-4.54-1-3.77-.63-7.59-1.43-11.28-2.2-3-.62-6.12-1.27-9.18-1.83-1.58-.29-3.13-.58-4.63-1q-1.5-.39-3-.75c-2-.48-4.09-1-6.05-1.6-2.89-.93-5.92-1.58-8.86-2.21l-2.37-.52.1-.47,2.37.51a90.58,90.58,0,0,1,8.91,2.22c1.94.63,4,1.12,6,1.6,1,.24,2,.48,3,.74,1.48.39,3,.67,4.58,1,3.08.56,6.19,1.21,9.2,1.83,3.69.77,7.5,1.57,11.26,2.2,1.34.23,2.76.53,4.58,1l2.51.65,1.7.45c2.17.55,4.26.9,6.47,1.27l2.58.45c.5.09,1,.18,1.5.29,3.31.68,6.62,1.51,9.83,2.31l3.42.85c.57.14,1.14.28,1.72.4,2.88.64,5.82,1.25,8.67,1.85s5.82,1.22,8.73,1.86Z"/><path class="cls-34" d="M139.52,86c-3.45-.76-7-1.46-10.36-2.14-2.5-.5-5.08-1-7.62-1.55-.6-.13-1.19-.26-1.78-.41-1.8-.43-3.62-.91-5.37-1.38-2.69-.72-5.47-1.47-8.25-2l-1.54-.29L102,77.74a65.17,65.17,0,0,1-6.73-1.29L93.52,76l-2.63-.7a46.92,46.92,0,0,0-4.68-1c-3.89-.61-7.83-1.42-11.64-2.2-3.11-.64-6.32-1.3-9.49-1.85-1.78-.31-3.27-.58-4.77-1l-2.4-.64c-1.85-.48-3.76-1-5.59-1.54-3.17-1-6.35-1.71-9.89-2.49l.1-.47c3.55.78,6.75,1.51,9.93,2.49,1.82.56,3.73,1.06,5.57,1.54l2.4.63c1.49.4,3,.67,4.74,1,3.17.55,6.39,1.21,9.5,1.85,3.8.78,7.73,1.58,11.61,2.19,1.4.22,2.85.54,4.73,1,.88.22,1.76.46,2.64.7l1.7.46A63,63,0,0,0,102,77.26c.88.14,1.76.27,2.66.43l1.55.29c2.79.57,5.58,1.31,8.28,2,1.75.46,3.56,1,5.35,1.38l1.77.4c2.54.53,5.12,1,7.62,1.55,3.4.68,6.91,1.38,10.36,2.14Z"/><path class="cls-34" d="M139.52,89.37c-3.82-.84-7.7-1.58-11.46-2.29-2.37-.46-4.73-.91-7.1-1.39-2.67-.53-5.32-1.29-7.89-2a86.58,86.58,0,0,0-9.53-2.33c-.92-.15-1.84-.28-2.75-.41a55.22,55.22,0,0,1-6.93-1.3l-1.79-.49a60.69,60.69,0,0,0-7.48-1.76c-4-.59-8.08-1.41-12-2.2-3.2-.65-6.52-1.32-9.78-1.86a46.29,46.29,0,0,1-4.93-1L53.29,71c-3.52-1-7.16-2.11-10.86-2.93l.1-.47c3.73.81,7.37,1.89,10.9,2.93L58,71.84a45.45,45.45,0,0,0,4.86,1c3.29.55,6.61,1.22,9.82,1.87,3.92.79,8,1.61,12,2.2a61.19,61.19,0,0,1,7.54,1.76l1.79.5a53.59,53.59,0,0,0,6.87,1.28l2.76.42a84.2,84.2,0,0,1,9.58,2.34c2.56.73,5.21,1.49,7.86,2,2.36.48,4.73.93,7.09,1.38,3.76.72,7.65,1.46,11.47,2.3Z"/></g><path class="cls-25" d="M283.53,27.47V40.32l-20.36,4.75-1,.23c-10.59,2.47-21.26,4.9-32.12,5.57-8.22.5-16.47,0-24.67.59-13.7,1-27,5.06-40.62,6.84a152.7,152.7,0,0,1-35.88.08c-4.38-.46-8.74-1.06-13.11-1.77l-2.47-.41-1.67-.29c-7-1.22-13.89-2.68-20.81-4.23h0c-4.3-1-8.59-2-12.87-3-8.32-2-16.93-4-24.25-8.59a13.89,13.89,0,0,1-3.43-2.59,4.86,4.86,0,0,1-.74-1.27,3.05,3.05,0,0,1-.14-1.38,5.75,5.75,0,0,0,0-2.51c-1.3-3.48-5.88-3.33-8.82-4.94a10.26,10.26,0,0,1-2.79-2.25V19.55l-3.33-1.14V16.08c1.44.5,4.52-.44,6-.59l16.94-1.66c5.66-.56,12.47.25,17.88-1.33a21.67,21.67,0,0,1,2.13-.61,14.14,14.14,0,0,1,2-.19c4.82-.25,9.6-.59,14.4-1.08S104,8.75,108.88,8.75c10-1.48,20.22-1,30.1-2.56,9.07-1.45,18.37-2.17,27.56-3.07,6.1,0,12.46-1.23,18.53-1.83l9.89-1c4.61-.45,7.49-.62,11.78.85,2.72.94,5.45,2.13,8.22,2.91,3,.83,6.22.63,9,2.18.64.35,1.22.78,1.87,1.09a13.39,13.39,0,0,0,2,.7c6.33,1.88,12.54,4.66,18.84,6.82,8.38,2.85,17.12,5.85,25.63,8.77.85.29,1.95.79,3.15,1.33l.91.41.93.41h0c2.12.92,4.32,1.74,5.9,1.7h.28Z"/><path class="cls-35" d="M39.14,28.49a2.63,2.63,0,0,1,1.13-.2,2,2,0,0,1,.7.25A6.38,6.38,0,0,1,42,29.2a1.26,1.26,0,0,1,.34.35.89.89,0,0,1,0,.75,2.11,2.11,0,0,1-.44.63,3.93,3.93,0,0,1-1.69,1.25,4.55,4.55,0,0,1-3.2-.53,9.75,9.75,0,0,1-2.31-1.45.45.45,0,0,1-.11-.13.49.49,0,0,1,0-.24.24.24,0,0,1,.07-.2.29.29,0,0,1,.1,0c.41-.06.78-.26,1.19-.34s.8-.11,1.18-.2C37.8,28.89,38.47,28.7,39.14,28.49Z"/><path class="cls-36" d="M115.81,43.93v2.33l-2.47-.85L37.79,19.55l-3.33-1.14V16.08c2.58.87,5.15,1.76,7.73,2.64l8.58,2.94.19.07,16.53,5.66h0L80,31.66l25.44,8.72,3,1h0l.39.13,1.89.65,2.68.92Z"/><path class="cls-36" d="M115.82,57.33v2.34l-8.58-2.94c-8.32-2.84-17-4.72-25.06-8.36-11.83-5.38-25-8-37.15-12.75-.85-.33-10.57-3.38-10.57-3.81A7.09,7.09,0,0,1,34.4,30c.17-.62.45-.24.88,0a23.12,23.12,0,0,0,2.28.85c1.87.66,3.76,1.28,5.65,1.9.6.2,1.23.38,1.82.61C57.17,38,70.35,40.65,82.18,46c8,3.64,16.74,5.52,25.06,8.37Z"/><path class="cls-37" d="M115.81,46.26V57.33l-2.47-.85-1.67-.57-4.43-1.52C98.92,51.55,90.18,49.67,82.18,46c-10.43-4.75-21.91-7.37-32.8-11.16q-2.19-.75-4.35-1.59l-.61-.21q-.36-.14-.72-.24l-1.4-.46L41.21,32l-.36-.12-.21-.07-1.16-.39-.58-.2-1.11-.39V19.55l75.55,25.86Z"/><path class="cls-35" d="M283.53,27.47V43.2l-21.32,2.1L128.92,58.38l-13.11,1.29V43.93l47.6-4.67,3.08-.3L202,35.47l3.56-.35,4.2-.41,7.48-.74,3.58-.35,2.15-.21,3.77-.37,2.13-.21,4.77-.47,12.65-1.24,4.88-.48,4.66-.46,2.94-.29,1.43-.14,2.75-.27,1.33-.13,2.55-.25c3-.28,5.67-.55,7.95-.77l1.52-.15,3.23-.32.92-.09,2.81-.28h.28Z"/><path class="cls-38" d="M283.25,27.49l-2.81.28-.92.09-3.23.32-1.52.15c-2.28.22-4.94.49-7.95.77l-2.55.25-1.33.13-2.75.27-1.43.14-2.94.29-4.66.46-4.88.48-12.65,1.24-4.77.47-2.13.21-3.77.37-2.15.21-3.58.35-7.48.74-4.2.41-3.56.35L166.49,39l-3.08.3-47.6,4.67-2.47-.85-2.68-.92L277.34,25.79h0C279.47,26.71,281.67,27.53,283.25,27.49Z"/><path class="cls-39" d="M277.34,25.79,110.66,42.16l-1.89-.65-.39-.13h0l-3-1C98.55,38,91.68,35.72,84.68,33.77a10,10,0,0,1-2.79-1.08,15.27,15.27,0,0,0-1.91-1,77.6,77.6,0,0,0-7.33-2.56c-1.71-.57-3.41-1.15-5.13-1.7h0q-2.56-.83-5.14-1.58c-3.8-1.11-7.59-2.76-11.39-4.08l-.19-.07-8.58-2.94C39.61,17.84,37,17,34.46,16.08c1.44.5,4.52-.44,6-.59l16.94-1.66c5.66-.56,12.47.25,17.88-1.33a21.67,21.67,0,0,1,2.13-.61,14.14,14.14,0,0,1,2-.19c4.82-.25,9.6-.59,14.4-1.08S104,8.75,108.88,8.75c10-1.48,20.22-1,30.1-2.56,9.07-1.45,18.37-2.17,27.56-3.07,6.1,0,12.46-1.23,18.53-1.83l9.89-1c4.61-.45,7.49-.62,11.78.85,2.72.94,5.45,2.13,8.22,2.91,3,.83,6.22.63,9,2.18.64.35,1.22.78,1.87,1.09a13.39,13.39,0,0,0,2,.7c6.33,1.88,12.54,4.66,18.84,6.82,8.38,2.85,17.12,5.85,25.63,8.77.85.29,1.95.79,3.15,1.33l.91.41Z"/><path class="cls-36" d="M115.82,43.93V59.67l-2.47-.85V43.08Z"/><path class="cls-35" d="M277.34,25.79,110.66,42.16l-1.89-.65-.39-.13L275.5,25l.91.41Z"/></g></g></g></svg>